<mxfile host="app.diagrams.net" modified="2021-05-06T14:28:24.426Z" agent="5.0 (X11; CrOS aarch64 13816.64.0) AppleWebKit/537.36 (KHTML, like Gecko) Chrome/90.0.4430.100 Safari/537.36" etag="3UhtcdhltXCNTHxCE4bv" version="14.6.10" type="github">
  <diagram id="-Wgw4w93DmJArQr2MnGR" name="Page-1">
    <mxGraphModel dx="582" dy="415" grid="1" gridSize="10" guides="1" tooltips="1" connect="1" arrows="1" fold="1" page="1" pageScale="1" pageWidth="850" pageHeight="1100" math="0" shadow="0">
      <root>
        <mxCell id="0" />
        <mxCell id="1" parent="0" />
        <mxCell id="FKGOTtSjfmfkWNzjg0I4-3" style="edgeStyle=orthogonalEdgeStyle;rounded=0;orthogonalLoop=1;jettySize=auto;html=1;exitX=0.5;exitY=1;exitDx=0;exitDy=0;exitPerimeter=0;entryX=0.5;entryY=0;entryDx=0;entryDy=0;" edge="1" parent="1" source="FKGOTtSjfmfkWNzjg0I4-1" target="FKGOTtSjfmfkWNzjg0I4-2">
          <mxGeometry relative="1" as="geometry" />
        </mxCell>
        <mxCell id="FKGOTtSjfmfkWNzjg0I4-1" value="Start" style="strokeWidth=2;html=1;shape=mxgraph.flowchart.terminator;whiteSpace=wrap;" vertex="1" parent="1">
          <mxGeometry x="250" y="190" width="100" height="60" as="geometry" />
        </mxCell>
        <mxCell id="FKGOTtSjfmfkWNzjg0I4-10" style="edgeStyle=orthogonalEdgeStyle;rounded=0;orthogonalLoop=1;jettySize=auto;html=1;exitX=0.5;exitY=1;exitDx=0;exitDy=0;entryX=0.5;entryY=0;entryDx=0;entryDy=0;" edge="1" parent="1" source="FKGOTtSjfmfkWNzjg0I4-2" target="FKGOTtSjfmfkWNzjg0I4-4">
          <mxGeometry relative="1" as="geometry" />
        </mxCell>
        <mxCell id="FKGOTtSjfmfkWNzjg0I4-2" value="Generate some_variable" style="rounded=1;whiteSpace=wrap;html=1;absoluteArcSize=1;arcSize=14;strokeWidth=2;" vertex="1" parent="1">
          <mxGeometry x="250" y="290" width="100" height="60" as="geometry" />
        </mxCell>
        <mxCell id="FKGOTtSjfmfkWNzjg0I4-11" style="edgeStyle=orthogonalEdgeStyle;rounded=0;orthogonalLoop=1;jettySize=auto;html=1;exitX=0.5;exitY=1;exitDx=0;exitDy=0;entryX=0.5;entryY=0;entryDx=0;entryDy=0;entryPerimeter=0;" edge="1" parent="1" source="FKGOTtSjfmfkWNzjg0I4-4" target="FKGOTtSjfmfkWNzjg0I4-6">
          <mxGeometry relative="1" as="geometry" />
        </mxCell>
        <mxCell id="FKGOTtSjfmfkWNzjg0I4-4" value="Get number" style="shape=parallelogram;html=1;strokeWidth=2;perimeter=parallelogramPerimeter;whiteSpace=wrap;rounded=1;arcSize=12;size=0.23;" vertex="1" parent="1">
          <mxGeometry x="250" y="390" width="100" height="60" as="geometry" />
        </mxCell>
        <mxCell id="FKGOTtSjfmfkWNzjg0I4-12" style="edgeStyle=orthogonalEdgeStyle;rounded=0;orthogonalLoop=1;jettySize=auto;html=1;exitX=0.5;exitY=1;exitDx=0;exitDy=0;exitPerimeter=0;entryX=0.571;entryY=0.019;entryDx=0;entryDy=0;entryPerimeter=0;" edge="1" parent="1" source="FKGOTtSjfmfkWNzjg0I4-6" target="FKGOTtSjfmfkWNzjg0I4-7">
          <mxGeometry relative="1" as="geometry" />
        </mxCell>
        <mxCell id="FKGOTtSjfmfkWNzjg0I4-13" style="edgeStyle=orthogonalEdgeStyle;rounded=0;orthogonalLoop=1;jettySize=auto;html=1;exitX=1;exitY=0.5;exitDx=0;exitDy=0;exitPerimeter=0;entryX=0.5;entryY=0;entryDx=0;entryDy=0;" edge="1" parent="1" source="FKGOTtSjfmfkWNzjg0I4-6" target="FKGOTtSjfmfkWNzjg0I4-8">
          <mxGeometry relative="1" as="geometry" />
        </mxCell>
        <mxCell id="FKGOTtSjfmfkWNzjg0I4-6" value="if number = some_variable" style="strokeWidth=2;html=1;shape=mxgraph.flowchart.decision;whiteSpace=wrap;" vertex="1" parent="1">
          <mxGeometry x="250" y="480" width="100" height="100" as="geometry" />
        </mxCell>
        <mxCell id="FKGOTtSjfmfkWNzjg0I4-15" style="edgeStyle=orthogonalEdgeStyle;rounded=0;orthogonalLoop=1;jettySize=auto;html=1;exitX=0.5;exitY=1;exitDx=0;exitDy=0;" edge="1" parent="1" source="FKGOTtSjfmfkWNzjg0I4-7">
          <mxGeometry relative="1" as="geometry">
            <mxPoint x="400" y="730" as="targetPoint" />
          </mxGeometry>
        </mxCell>
        <mxCell id="FKGOTtSjfmfkWNzjg0I4-7" value="print(&quot;Correct&quot;)" style="shape=parallelogram;html=1;strokeWidth=2;perimeter=parallelogramPerimeter;whiteSpace=wrap;rounded=1;arcSize=12;size=0.23;" vertex="1" parent="1">
          <mxGeometry x="270" y="620" width="100" height="60" as="geometry" />
        </mxCell>
        <mxCell id="FKGOTtSjfmfkWNzjg0I4-14" style="edgeStyle=orthogonalEdgeStyle;rounded=0;orthogonalLoop=1;jettySize=auto;html=1;exitX=0.5;exitY=1;exitDx=0;exitDy=0;entryX=0.5;entryY=0;entryDx=0;entryDy=0;entryPerimeter=0;" edge="1" parent="1" source="FKGOTtSjfmfkWNzjg0I4-8" target="FKGOTtSjfmfkWNzjg0I4-9">
          <mxGeometry relative="1" as="geometry" />
        </mxCell>
        <mxCell id="FKGOTtSjfmfkWNzjg0I4-8" value="print(&quot;Incorrect&quot;)" style="shape=parallelogram;html=1;strokeWidth=2;perimeter=parallelogramPerimeter;whiteSpace=wrap;rounded=1;arcSize=12;size=0.23;" vertex="1" parent="1">
          <mxGeometry x="425" y="620" width="100" height="60" as="geometry" />
        </mxCell>
        <mxCell id="FKGOTtSjfmfkWNzjg0I4-9" value="Stop" style="strokeWidth=2;html=1;shape=mxgraph.flowchart.terminator;whiteSpace=wrap;" vertex="1" parent="1">
          <mxGeometry x="350" y="730" width="100" height="60" as="geometry" />
        </mxCell>
      </root>
    </mxGraphModel>
  </diagram>
</mxfile>
